<?xml version="1.0" encoding="UTF-8" standalone="no"?>
<svg
   xmlns:dc="http://purl.org/dc/elements/1.1/"
   xmlns:cc="http://creativecommons.org/ns#"
   xmlns:rdf="http://www.w3.org/1999/02/22-rdf-syntax-ns#"
   xmlns:svg="http://www.w3.org/2000/svg"
   xmlns="http://www.w3.org/2000/svg"
   xmlns:xlink="http://www.w3.org/1999/xlink"
   xmlns:sodipodi="http://sodipodi.sourceforge.net/DTD/sodipodi-0.dtd"
   xmlns:inkscape="http://www.inkscape.org/namespaces/inkscape"
   id="Layer_1"
   xml:space="preserve"
   enable-background="new 0 0 100 100"
   viewBox="0 0 329.17663 329.17664"
   height="329.17664"
   width="329.17664"
   y="0px"
   x="0px"
   version="1.1"
   inkscape:version="0.91 r13725"
   sodipodi:docname="pySpellbook.svg"
   inkscape:export-filename="/home/christoph/vcs/pySpellBook/src/icons/pyspellbook.png"
   inkscape:export-xdpi="35"
   inkscape:export-ydpi="35"><metadata
     id="metadata9"><rdf:RDF><cc:Work
         rdf:about=""><dc:format>image/svg+xml</dc:format><dc:type
           rdf:resource="http://purl.org/dc/dcmitype/StillImage" /><dc:title></dc:title></cc:Work></rdf:RDF></metadata><defs
     id="defs7"><linearGradient
       inkscape:collect="always"
       id="linearGradient5934"><stop
         style="stop-color:#5b6b94;stop-opacity:1;"
         offset="0"
         id="stop5936" /><stop
         style="stop-color:#5b6b94;stop-opacity:0;"
         offset="1"
         id="stop5938" /></linearGradient><linearGradient
       inkscape:collect="always"
       id="linearGradient5926"><stop
         style="stop-color:#5b6b94;stop-opacity:1;"
         offset="0"
         id="stop5928" /><stop
         style="stop-color:#5b6b94;stop-opacity:0;"
         offset="1"
         id="stop5930" /></linearGradient><linearGradient
       id="linearGradient12512"><stop
         id="stop12513"
         offset="0.0000000"
         style="stop-color:#ffffff;stop-opacity:1.0000000;" /><stop
         id="stop12517"
         offset="0.50000000"
         style="stop-color:#fff520;stop-opacity:0.89108908;" /><stop
         id="stop12514"
         offset="1.0000000"
         style="stop-color:#fff300;stop-opacity:0.0000000;" /></linearGradient><radialGradient
       r="14.375"
       fy="125"
       fx="55"
       cy="125"
       cx="55"
       gradientUnits="userSpaceOnUse"
       id="radialGradient278"
       xlink:href="#linearGradient12512"
       inkscape:collect="always" /><linearGradient
       id="linearGradient2094"><stop
         id="stop2096"
         offset="0.0000000"
         style="stop-color:#d6e3f0;stop-opacity:1.0000000;" /><stop
         id="stop2098"
         offset="1.0000000"
         style="stop-color:#95b1cf;stop-opacity:1.0000000;" /></linearGradient><linearGradient
       id="linearGradient2803"><stop
         style="stop-color:#ffffff;stop-opacity:1;"
         offset="0"
         id="stop2805" /><stop
         style="stop-color:#cbcbcb;stop-opacity:1.0000000;"
         offset="1.0000000"
         id="stop2807" /></linearGradient><linearGradient
       id="linearGradient2795"><stop
         style="stop-color:#000000;stop-opacity:0.068627454;"
         offset="0.0000000"
         id="stop2797" /><stop
         style="stop-color:#ffffff;stop-opacity:1.0000000;"
         offset="1.0000000"
         id="stop2799" /></linearGradient><radialGradient
       r="14.375"
       fy="125"
       fx="55"
       cy="125"
       cx="55"
       gradientUnits="userSpaceOnUse"
       id="radialGradient278-0"
       xlink:href="#linearGradient12512"
       inkscape:collect="always" /><linearGradient
       id="linearGradient21644"
       inkscape:collect="always"><stop
         id="stop21646"
         offset="0"
         style="stop-color:#000000;stop-opacity:1;" /><stop
         id="stop21648"
         offset="1"
         style="stop-color:#000000;stop-opacity:0;" /></linearGradient><linearGradient
       id="linearGradient2116"
       inkscape:collect="always"><stop
         id="stop2118"
         offset="0"
         style="stop-color:#ffffff;stop-opacity:1;" /><stop
         id="stop2120"
         offset="1"
         style="stop-color:#ffffff;stop-opacity:0;" /></linearGradient><linearGradient
       inkscape:collect="always"
       xlink:href="#linearGradient2795"
       id="linearGradient2801"
       gradientTransform="matrix(0.254,0,0,3.759813,0.788629,0.148567)"
       x1="35.433037"
       y1="4.9530048"
       x2="41.219128"
       y2="4.9530048"
       gradientUnits="userSpaceOnUse" /><linearGradient
       inkscape:collect="always"
       xlink:href="#linearGradient2803"
       id="linearGradient2813"
       gradientTransform="matrix(2.262742,0,0,0.441942,1,-0.875)"
       x1="10.496115"
       y1="93.338043"
       x2="10.219901"
       y2="84.287079"
       gradientUnits="userSpaceOnUse" /><linearGradient
       gradientUnits="userSpaceOnUse"
       y2="22.132999"
       x2="14.511404"
       y1="22.132999"
       x1="6.5871811"
       gradientTransform="matrix(0.95775,0,0,1.027989,1,-0.571911)"
       id="linearGradient2100"
       xlink:href="#linearGradient2094"
       inkscape:collect="always" /><linearGradient
       gradientUnits="userSpaceOnUse"
       y2="21.270376"
       x2="-2.7582901"
       y1="26.652197"
       x1="73.361984"
       gradientTransform="matrix(1.025428,0,0,0.957303,0,-0.806758)"
       id="linearGradient2112"
       xlink:href="#linearGradient2116"
       inkscape:collect="always" /><radialGradient
       gradientUnits="userSpaceOnUse"
       gradientTransform="matrix(1,0,0,0.595238,0,14.875)"
       r="15.75"
       fy="36.75"
       fx="25.125"
       cy="36.75"
       cx="25.125"
       id="radialGradient21650"
       xlink:href="#linearGradient21644"
       inkscape:collect="always" /><linearGradient
       inkscape:collect="always"
       xlink:href="#linearGradient5926"
       id="linearGradient5932"
       x1="8.2132797"
       y1="130.20435"
       x2="59.203804"
       y2="130.20435"
       gradientUnits="userSpaceOnUse"
       gradientTransform="matrix(2.1386446,0,0,2.1386446,22.008497,-89.870278)" /><linearGradient
       inkscape:collect="always"
       xlink:href="#linearGradient5934"
       id="linearGradient5940"
       x1="34.367599"
       y1="80.489655"
       x2="105.10019"
       y2="80.489655"
       gradientUnits="userSpaceOnUse"
       gradientTransform="matrix(2.1386446,0,0,2.1386446,22.008497,-89.870278)" /></defs><sodipodi:namedview
     pagecolor="#ffffff"
     bordercolor="#666666"
     borderopacity="1"
     objecttolerance="10"
     gridtolerance="10"
     guidetolerance="10"
     inkscape:pageopacity="0"
     inkscape:pageshadow="2"
     inkscape:window-width="1918"
     inkscape:window-height="1182"
     id="namedview5"
     showgrid="false"
     inkscape:zoom="1"
     inkscape:cx="10.582528"
     inkscape:cy="29.370061"
     inkscape:window-x="0"
     inkscape:window-y="16"
     inkscape:window-maximized="0"
     inkscape:current-layer="Layer_1"
     fit-margin-top="0"
     fit-margin-left="0"
     fit-margin-right="0"
     fit-margin-bottom="0" /><g
     id="g5961"
     transform="translate(23.169263,-5.9419991e-6)"><g
       transform="matrix(7.349178,0,0,7.349178,-31.394266,-14.397432)"
       id="layer1"
       inkscape:label="Layer 1"><ellipse
         ry="9.375"
         rx="15.75"
         cy="36.75"
         cx="25.125"
         style="color:#000000;display:inline;overflow:visible;visibility:visible;opacity:1;fill:url(#radialGradient21650);fill-opacity:1;fill-rule:evenodd;stroke:none;stroke-width:1;stroke-linecap:round;stroke-linejoin:round;stroke-miterlimit:4;stroke-dasharray:none;stroke-dashoffset:0;stroke-opacity:1;marker:none;marker-start:none;marker-mid:none;marker-end:none"
         id="path21642"
         transform="matrix(1.150794,0,0,1,-4.91369,0.625)" /><path
         inkscape:connector-curvature="0"
         style="color:#000000;display:inline;overflow:visible;visibility:visible;fill:#5b6b94;fill-opacity:1;fill-rule:nonzero;stroke:#364878;stroke-width:1.00000012;stroke-linecap:round;stroke-linejoin:round;stroke-miterlimit:4;stroke-dashoffset:0;stroke-opacity:1;marker:none;marker-start:none;marker-mid:none;marker-end:none"
         d="M 6.3643222,5.5185897 C 6.4551049,3.6036003 7.3719758,2.5542814 9.0788784,2.549044 L 38.405776,2.4590577 c 0.246585,-7.566e-4 0.568541,0.2001494 0.593236,0.4499311 l 3.258479,32.9582392 -1.315302,0.05663 0.62924,6.445654 C 41.632441,42.994499 41.390059,43.52882 40.5,43.533035 L 9.7893046,43.678474 C 7.25676,43.690468 4.6538454,41.59976 4.7759337,39.024403 L 6.3643222,5.5185897 Z"
         id="rect1408"
         sodipodi:nodetypes="csssccsssss" /><path
         inkscape:connector-curvature="0"
         id="path2489"
         d="M 40.125,34.875 10.9375,35 c -1.5565181,0.177868 -2.8125,1.39612 -2.8125,3 0,1.60388 1.2559819,2.822132 2.8125,3 l 29.1875,0.125 0,-0.0625 c -1.655622,-0.07815 -3,-1.387649 -3,-3.0625 0,-1.674851 1.344378,-2.984348 3,-3.0625 l 0,-0.0625 z"
         style="color:#000000;display:inline;overflow:visible;visibility:visible;fill:url(#linearGradient2813);fill-opacity:1;fill-rule:nonzero;stroke:none;stroke-width:1;stroke-linecap:round;stroke-linejoin:round;stroke-miterlimit:4;stroke-dashoffset:0;stroke-opacity:1;marker:none;marker-start:none;marker-mid:none;marker-end:none" /><path
         inkscape:connector-curvature="0"
         sodipodi:nodetypes="ccccccssc"
         id="path2784"
         d="m 9.6875,2.8125 c -1.7069103,0 -2.637397,1.0090062 -2.71875,2.8613658 L 5.3125,37.825772 C 5.22054,40.904199 7.1393732,42.654485 9.125,43.15625 4.875,41.525579 5.4375,34.164455 10.75,34.195222 l 30.898286,0 -3.3125,-30.9519788 C 38.310025,3.0025304 37.987878,2.8125 37.742036,2.8125 l -28.054536,0 z"
         style="color:#000000;display:inline;overflow:visible;visibility:visible;fill:url(#linearGradient2100);fill-opacity:1;fill-rule:nonzero;stroke:none;stroke-width:1;stroke-linecap:round;stroke-linejoin:round;stroke-miterlimit:4;stroke-dashoffset:0;stroke-opacity:1;marker:none;marker-start:none;marker-mid:none;marker-end:none" /><rect
         y="3.968539"
         x="9.7886267"
         height="29.604792"
         width="2"
         id="rect2793"
         style="color:#000000;display:inline;overflow:visible;visibility:visible;opacity:0.48044691;fill:url(#linearGradient2801);fill-opacity:1;fill-rule:nonzero;stroke:none;stroke-width:1;stroke-linecap:round;stroke-linejoin:round;stroke-miterlimit:4;stroke-dashoffset:0;stroke-opacity:0.60818715;marker:none;marker-start:none;marker-mid:none;marker-end:none"
         transform="matrix(1,0,-0.03582731,0.999358,0,0)" /><path
         inkscape:connector-curvature="0"
         style="color:#000000;display:inline;overflow:visible;visibility:visible;fill:none;fill-opacity:1;fill-rule:nonzero;stroke:url(#linearGradient2112);stroke-width:1.00000012;stroke-linecap:round;stroke-linejoin:miter;stroke-miterlimit:20;stroke-dasharray:none;stroke-dashoffset:0;stroke-opacity:1;marker:none;marker-start:none;marker-mid:none;marker-end:none"
         d="m 9.8751008,3.3336831 c -1.6838994,0 -2.3366772,0.7321628 -2.4169335,2.5541479 l -1.298904,29.889367 c 0.9333283,-1.606747 2.4395958,-2.182761 4.8524017,-2.182761 l 29.951416,0 -2.825902,-29.8370739 c -0.02245,-0.2370539 -0.343218,-0.42368 -0.585745,-0.42368 l -27.6763332,0 z"
         id="path2104"
         sodipodi:nodetypes="cccscssc" /></g><path
       sodipodi:nodetypes="cssssccsccssccsccsssscc"
       style="fill:url(#linearGradient5932);fill-opacity:1;stroke:#364878;stroke-width:4.27728939;stroke-miterlimit:4;stroke-dasharray:none"
       inkscape:connector-curvature="0"
       id="path3"
       d="m 96.296731,154.70692 -28.957249,0 c -1.627508,0 -2.955607,1.33024 -2.955607,2.95561 l 0,7.64351 c 0,1.62537 1.330237,2.95347 2.955607,2.95347 l 3.509516,0 0,10.94775 -15.235704,0 c -4.063425,0 -7.786807,3.30206 -8.270141,7.33555 l -3.447495,28.59581 c -0.485473,4.03349 2.442332,7.33555 6.505759,7.33555 l 87.395713,0 c 4.06342,0 6.98909,-3.30206 6.50576,-7.33555 l -3.44536,-28.59581 c -0.48761,-4.03349 -4.20885,-7.33555 -8.27228,-7.33555 l -15.23356,0 0,-10.94775 3.50524,0 c 1.6275,0 2.9556,-1.3281 2.9556,-2.95347 l 0,-7.64351 c 0,-1.62537 -1.33023,-2.95561 -2.9556,-2.95561 l -17.75076,0 z" /><path
       sodipodi:nodetypes="cccccccccccccccc"
       style="fill:url(#linearGradient5940);fill-opacity:1;stroke:#364878;stroke-width:4.27728939;stroke-miterlimit:4;stroke-dasharray:none"
       inkscape:connector-curvature="0"
       id="path3-5"
       d="m 109.89245,149.99379 c 1.70664,-2.9107 3.53519,-5.85003 5.40009,-8.83344 26.83785,0.12832 47.7046,-6.42021 64.185,-17.32301 -10.55849,-5.30384 -27.13512,-11.31557 -38.96183,-13.69588 14.24124,0.42773 27.00253,0.45981 47.47577,7.37618 21.80562,-18.082228 34.91552,-44.515874 44.3063,-72.076587 -8.46261,-1.415783 -17.37648,-2.361064 -24.45326,-2.395282 8.54175,-1.411506 16.52959,-2.855091 26.28394,-3.137392 2.66476,-8.293664 5.03437,-16.64721 7.23076,-24.861742 -71.70661,-7.7483105 -126.04957,70.29297 -132.07841,117.219093 21.5169,-30.61041 58.36361,-73.909402 98.58724,-97.526455 -35.80519,25.561081 -72.76738,65.329165 -99.17965,106.333395 -1.19336,1.8542 -2.36534,3.71268 -3.51593,5.56903 -0.17537,0.28016 -0.34432,0.56246 -0.51541,0.84262 -0.51327,0.83835 -1.04702,1.68637 -1.55388,2.52472 z" /></g></svg>